<?xml version="1.0" standalone="no"?>
<!DOCTYPE svg PUBLIC "-//W3C//DTD SVG 20010904//EN"
 "http://www.w3.org/TR/2001/REC-SVG-20010904/DTD/svg10.dtd">
<svg version="1.0" xmlns="http://www.w3.org/2000/svg"
 width="1023.000000pt" height="1280.000000pt" viewBox="0 0 1023.000000 1280.000000"
 preserveAspectRatio="xMidYMid meet">
<metadata>
Created by potrace 1.15, written by Peter Selinger 2001-2017
</metadata>
<g transform="translate(0.000000,1280.000000) scale(0.100000,-0.100000)"
fill="#000000" stroke="none">
<path d="M4840 12775 c-41 -8 -119 -21 -172 -29 -102 -16 -168 -38 -168 -56 0
-11 47 -404 55 -462 l5 -38 -50 0 c-45 0 -56 5 -105 45 -75 61 -147 70 -214
28 -22 -14 -23 -20 -19 -87 5 -78 28 -132 61 -142 12 -4 54 11 113 41 63 31
111 48 149 52 51 5 55 8 55 31 0 14 3 23 6 20 10 -11 44 -351 56 -571 10 -189
10 -220 -3 -228 -28 -18 -58 -8 -105 32 -55 48 -81 59 -135 59 -62 0 -106 -23
-114 -59 -9 -41 11 -134 36 -165 28 -36 60 -33 146 15 44 24 93 42 122 46 l47
5 -4 -35 c-2 -19 1 -44 7 -55 6 -11 53 -50 105 -87 106 -76 137 -113 162 -200
16 -55 16 -90 5 -455 -21 -741 -51 -2993 -51 -3912 0 -420 0 -428 -20 -428
-11 0 -26 -10 -34 -23 -38 -57 -48 -112 -57 -312 -19 -421 -59 -553 -200 -662
-34 -26 -97 -76 -140 -109 -127 -100 -140 -98 -249 54 -86 120 -114 147 -177
178 -45 23 -67 26 -158 28 l-106 1 -41 -43 -41 -44 -166 51 c-498 153 -884
228 -1186 230 -60 1 -171 8 -245 17 -173 20 -474 70 -499 84 -11 5 -35 10 -55
10 -47 0 -360 80 -468 120 -165 60 -376 217 -628 467 -120 120 -169 163 -185
161 -30 -4 -30 -36 4 -135 80 -242 244 -540 388 -710 l55 -65 -48 28 c-113 64
-262 173 -341 248 -73 69 -90 92 -129 173 -38 80 -48 93 -69 93 -31 0 -40 -31
-31 -103 21 -178 129 -424 269 -613 69 -93 215 -236 314 -308 82 -60 93 -76
47 -76 -22 0 -518 230 -539 251 -14 14 -55 11 -61 -6 -21 -54 280 -397 482
-548 49 -37 114 -80 146 -97 32 -17 58 -35 58 -41 0 -5 10 -9 21 -9 29 0 102
-21 114 -33 15 -14 -362 -1 -476 17 -52 8 -117 22 -143 31 -48 17 -76 15 -76
-5 0 -21 87 -105 180 -175 168 -125 342 -214 499 -256 60 -16 119 -21 276 -25
110 -3 220 -7 245 -10 l44 -6 -89 -29 c-185 -60 -515 -159 -635 -189 -69 -17
-131 -36 -138 -42 -23 -20 -9 -52 33 -75 121 -66 574 -134 797 -119 53 3 104
9 114 13 11 4 15 2 11 -4 -11 -17 -286 -149 -378 -181 -47 -17 -107 -33 -132
-37 -78 -12 -84 -49 -11 -65 21 -5 104 -15 184 -21 240 -20 545 0 695 45 27 9
51 14 52 12 6 -6 -231 -168 -319 -219 -46 -26 -110 -56 -143 -65 -47 -14 -61
-23 -63 -39 -5 -32 40 -38 258 -37 276 2 489 39 643 114 l62 31 -83 -80 c-120
-115 -260 -206 -375 -245 -24 -8 -33 -36 -16 -47 42 -28 504 68 694 145 46 19
115 55 152 80 38 25 72 46 76 46 15 0 6 -39 -19 -86 -58 -110 -159 -199 -313
-279 -79 -42 -104 -72 -80 -101 11 -13 25 -15 74 -11 114 11 270 71 421 161
32 20 63 36 68 36 18 0 -49 -62 -126 -116 -43 -30 -85 -68 -94 -85 -14 -29
-14 -32 2 -50 25 -27 84 -24 184 11 46 16 86 27 88 25 3 -2 2 -15 -2 -29 -4
-17 -20 -31 -51 -45 -25 -11 -48 -27 -51 -36 -11 -27 5 -64 33 -79 l28 -14 -3
-184 c-4 -218 11 -341 68 -565 47 -182 79 -277 114 -337 50 -86 145 -194 268
-306 207 -189 372 -310 550 -405 200 -105 322 -141 608 -179 526 -70 829 -58
1147 49 443 148 904 495 1142 860 136 208 212 448 229 723 l7 103 70 3 c92 4
145 32 145 75 0 5 -33 33 -72 64 -76 58 -164 144 -138 134 157 -59 338 -44
376 32 19 37 5 61 -45 83 -55 23 -146 90 -161 118 -11 20 -10 20 22 6 18 -7
67 -30 108 -49 96 -45 189 -65 224 -49 56 25 26 72 -109 174 -63 48 -101 85
-94 92 3 3 45 -20 94 -51 160 -101 379 -173 439 -145 54 24 24 63 -105 132
-102 55 -206 156 -248 242 -31 61 -39 98 -22 98 4 0 26 -14 47 -31 49 -39 147
-88 242 -123 128 -46 375 -103 522 -120 92 -10 95 33 5 69 -100 41 -282 179
-360 273 l-27 32 69 -34 c144 -73 340 -108 613 -109 193 -1 244 8 238 39 -2
11 -27 25 -68 38 -36 11 -97 40 -136 63 -80 48 -307 213 -301 219 2 3 17 0 33
-6 104 -40 361 -65 568 -56 163 7 290 22 319 38 35 19 15 41 -48 54 -33 7 -91
24 -127 38 -73 27 -311 146 -343 171 -19 15 -19 15 10 8 59 -15 335 -6 480 16
301 45 470 113 414 166 -8 7 -75 29 -149 49 -162 43 -670 207 -670 216 0 4
101 10 224 14 173 5 241 11 301 26 168 43 423 193 574 337 61 58 80 83 75 96
-7 20 -35 22 -72 3 -36 -18 -124 -33 -257 -46 -132 -12 -338 -13 -331 -2 3 5
31 15 63 22 32 7 65 19 73 27 8 7 57 40 107 73 115 76 288 240 404 385 127
158 164 235 114 235 -9 0 -111 -49 -228 -109 -269 -138 -311 -157 -338 -144
-19 8 -14 14 57 68 259 194 468 512 544 828 50 206 2 269 -78 102 -37 -76 -57
-104 -135 -180 -82 -80 -179 -154 -316 -240 l-45 -28 51 64 c171 216 393 673
393 810 0 59 -24 58 -79 -3 -258 -294 -550 -529 -738 -598 -109 -39 -330 -97
-403 -106 -30 -3 -62 -10 -71 -15 -21 -10 -245 -52 -399 -74 -63 -9 -212 -20
-330 -25 -132 -6 -261 -17 -335 -30 -253 -43 -674 -159 -1002 -276 -125 -44
-159 -53 -166 -42 -144 238 -224 346 -346 468 -152 151 -250 194 -486 210 -88
7 -144 15 -152 23 -15 15 -16 42 -44 1177 -25 1053 -55 2214 -74 2865 -29 979
-30 1052 -10 1240 10 94 20 172 21 174 2 2 24 -14 48 -37 70 -65 161 -77 221
-30 30 23 33 68 11 142 -17 55 -41 86 -68 86 -11 0 -58 -20 -105 -45 -47 -25
-91 -45 -98 -45 -9 0 -15 25 -19 88 -4 48 -9 115 -11 150 -4 40 -2 62 5 62 6
0 31 -19 57 -42 45 -42 47 -43 118 -43 100 0 119 16 113 100 -7 116 -57 168
-126 132 -15 -8 -55 -28 -88 -45 -34 -18 -66 -32 -72 -32 -14 0 -20 44 -28
209 l-7 143 56 -45 c77 -63 149 -73 216 -30 21 14 23 20 19 81 -5 79 -31 140
-63 148 -16 4 -51 -9 -111 -40 -134 -70 -125 -82 -123 157 2 198 -10 317 -33
345 -8 9 -27 11 -67 6 -43 -5 -82 0 -161 19 -141 33 -219 39 -310 22z m450
-2051 l0 -234 -156 0 -157 0 7 223 c4 122 11 225 14 229 8 7 272 26 285 20 4
-2 7 -109 7 -238z m-92 -630 l92 -7 0 -178 0 -179 -160 0 -160 0 0 88 c0 48 3
131 7 185 l6 97 62 0 c34 0 103 -3 153 -6z m-20 -711 l122 -6 0 -194 0 -193
-165 0 c-140 0 -167 2 -172 15 -3 9 -2 99 2 200 l7 185 43 0 c23 0 97 -3 163
-7z m122 -933 l0 -190 -175 0 -175 0 0 48 c0 26 3 111 7 190 l6 142 169 0 168
0 0 -190z m0 -707 l0 -186 -176 6 c-98 4 -178 8 -180 10 -2 2 -1 83 3 180 l6
177 174 0 173 0 0 -187z m-21 -469 l31 -6 0 -209 0 -209 -184 0 c-102 0 -187
3 -189 8 -2 4 -2 100 1 215 l4 207 153 0 c84 0 167 -3 184 -6z m31 -904 l0
-210 -190 2 c-105 2 -190 6 -190 11 0 4 0 97 0 207 l0 200 190 0 190 0 0 -210z
m4689 -176 c-47 -137 -182 -407 -264 -529 -74 -111 -167 -215 -215 -240 -25
-13 -215 -38 -380 -50 -47 -3 -96 -8 -109 -11 l-23 -5 21 34 c36 59 27 122
-27 179 -19 21 -22 29 -11 32 8 3 58 17 113 31 54 15 137 40 184 57 158 58
391 235 622 474 63 66 116 119 118 118 1 0 -11 -41 -29 -90z m-9424 -267 c136
-109 258 -191 342 -229 57 -25 206 -71 352 -108 l44 -11 -32 -33 c-54 -56 -61
-119 -19 -179 l20 -28 -39 6 c-21 2 -121 12 -223 21 -102 8 -204 19 -227 24
-118 21 -286 228 -447 550 -57 112 -136 298 -136 318 0 4 57 -49 128 -118 70
-69 176 -164 237 -213z m4735 -142 l0 -185 -195 0 -195 0 0 185 0 185 195 0
195 0 0 -185z m4850 3 c-79 -307 -273 -589 -546 -797 l-102 -77 -123 12 c-68
6 -204 17 -302 24 l-178 13 35 36 c41 43 56 78 56 134 0 59 -17 111 -46 146
l-25 30 23 5 c13 3 84 10 158 16 74 6 177 15 228 21 86 10 95 9 107 -8 13 -17
15 -17 67 6 29 13 79 32 111 43 31 11 57 25 57 31 0 7 26 27 58 46 193 116
380 289 422 391 23 55 23 16 0 -72z m-10022 -43 c60 -75 196 -185 333 -270 59
-37 109 -70 111 -74 3 -9 203 -91 220 -91 6 0 16 7 22 15 10 12 40 12 241 -6
127 -11 244 -22 262 -25 l32 -5 -31 -44 c-57 -81 -52 -190 14 -261 l41 -44
-27 0 c-34 0 -415 -29 -521 -39 l-80 -8 -100 71 c-125 88 -268 225 -351 336
-112 150 -227 399 -248 540 l-7 45 20 -41 c12 -22 43 -67 69 -99z m8797 -179
c38 -16 75 -68 75 -104 0 -55 -93 -112 -185 -112 -22 0 -76 -5 -120 -10 -44
-6 -210 -22 -370 -35 -265 -23 -665 -67 -741 -81 -29 -5 -31 -4 -27 23 5 40
-27 86 -77 110 l-42 19 98 23 c189 42 260 52 464 61 113 4 248 14 300 20 117
14 425 66 500 84 73 18 85 18 125 2z m-7467 -21 c277 -58 563 -94 837 -105
215 -8 294 -18 503 -62 l104 -22 -45 -23 c-55 -28 -77 -56 -77 -101 0 -33 -1
-34 -31 -28 -94 19 -544 63 -1284 126 -98 8 -141 25 -174 66 -41 52 -20 112
53 145 49 22 32 22 114 4z m3844 -282 c2 -93 3 -201 3 -241 l0 -72 171 0 171
0 8 -291 c4 -160 5 -293 2 -296 -3 -3 -138 -5 -299 -5 -161 1 -392 -2 -513 -6
-121 -5 -229 -6 -239 -4 -18 5 -19 15 -13 295 4 159 9 292 12 295 2 3 70 4
150 3 l145 -2 0 245 0 246 200 0 200 0 2 -167z m2139 62 c55 -17 88 -77 57
-103 -7 -5 -85 -24 -173 -41 -266 -51 -455 -118 -455 -162 0 -24 16 -24 55 -1
78 48 301 109 404 111 85 1 136 -15 171 -56 30 -34 36 -57 22 -80 -4 -7 -51
-17 -107 -23 -250 -27 -465 -88 -465 -131 0 -24 7 -24 67 2 26 11 93 31 148
45 84 20 114 23 185 18 95 -8 129 -24 150 -74 17 -42 1 -77 -46 -96 -27 -11
-58 -13 -132 -8 -122 8 -390 -10 -459 -31 -31 -9 -53 -22 -53 -30 0 -23 12
-24 70 -8 76 21 393 30 446 13 78 -25 144 -95 144 -152 0 -45 -26 -50 -132
-29 -159 33 -315 52 -431 54 -102 2 -112 0 -112 -16 0 -16 11 -19 101 -23 151
-6 310 -31 368 -57 91 -42 159 -119 142 -162 -8 -22 -22 -20 -184 31 -289 90
-507 130 -507 94 0 -10 16 -18 50 -23 123 -21 375 -90 430 -117 75 -38 120
-85 135 -142 27 -96 -47 -127 -165 -69 -34 17 -66 31 -70 31 -4 0 -73 27 -154
59 -157 63 -329 121 -361 121 -13 0 -20 -7 -20 -18 0 -14 16 -22 68 -36 85
-22 329 -116 447 -171 124 -58 183 -125 173 -196 -2 -19 -10 -25 -39 -27 -28
-2 -73 15 -210 82 -207 101 -395 168 -409 146 -13 -21 -7 -24 100 -59 113 -38
360 -158 413 -202 60 -50 93 -129 65 -157 -33 -33 -109 -3 -278 107 -149 97
-314 186 -330 176 -24 -15 -5 -35 63 -68 155 -73 367 -221 410 -285 49 -76 56
-159 12 -176 -22 -8 -74 15 -116 52 -52 45 -221 152 -241 152 -38 0 -18 -35
37 -64 60 -31 200 -150 221 -187 25 -44 36 -97 24 -119 -20 -38 -77 -19 -163
52 -27 23 -54 37 -62 34 -23 -8 -18 -19 26 -66 51 -53 89 -132 89 -183 0 -56
-21 -56 -72 0 -23 26 -100 107 -169 178 -133 138 -345 411 -381 492 -15 33
-23 75 -26 133 -4 76 -1 96 27 180 18 52 95 223 171 380 185 381 221 502 186
630 -11 41 -11 57 -3 62 34 21 559 192 680 222 19 4 146 -2 168 -9z m-4161
-71 c330 -95 302 -85 295 -108 -4 -12 -9 -56 -12 -99 -9 -122 34 -257 176
-557 149 -313 187 -451 157 -568 -12 -49 -28 -77 -83 -142 -37 -45 -90 -113
-116 -152 -40 -59 -62 -80 -132 -124 -45 -28 -106 -70 -135 -93 -28 -23 -58
-41 -65 -41 -7 0 -20 -3 -28 -6 -9 -3 -25 4 -37 16 -18 18 -21 29 -15 58 10
52 38 102 82 144 54 52 240 170 360 229 57 28 105 54 108 59 3 4 -1 13 -9 19
-17 15 -203 -77 -360 -179 -183 -117 -286 -142 -286 -68 0 58 49 118 130 159
25 13 47 26 50 30 15 19 304 136 398 159 42 11 57 35 28 46 -25 10 -247 -71
-417 -152 -134 -63 -173 -78 -214 -78 l-50 -1 1 41 c1 53 44 110 111 146 92
50 427 175 573 214 39 11 47 37 14 42 -26 4 -256 -70 -416 -133 -62 -25 -117
-45 -122 -45 -5 0 -33 -12 -63 -27 -144 -70 -233 -21 -174 95 10 20 30 47 43
58 41 38 150 83 273 113 104 26 280 61 306 61 5 0 9 10 9 21 0 21 -3 21 -57
15 -88 -10 -268 -52 -462 -108 -95 -27 -179 -47 -187 -44 -26 10 -15 55 24 98
55 61 135 94 278 112 66 9 164 17 219 19 92 3 100 4 100 22 0 19 -7 20 -111
18 -118 -2 -282 -21 -451 -53 -56 -11 -109 -17 -118 -14 -8 4 -18 17 -21 31
-15 58 59 137 151 163 61 17 375 7 460 -14 77 -19 75 -20 75 4 0 15 -12 23
-52 35 -69 20 -347 38 -478 29 -121 -7 -171 6 -192 51 -10 22 -9 32 6 59 25
46 60 62 152 69 91 7 210 -14 332 -58 40 -14 77 -23 82 -20 61 38 -201 117
-478 145 -57 5 -108 12 -113 16 -5 3 -9 18 -9 34 0 35 54 85 107 99 97 25 356
-21 498 -89 73 -35 85 -37 85 -12 0 47 -198 113 -500 167 -113 20 -149 31
-162 47 -13 15 -15 24 -8 39 20 37 61 54 144 60 98 7 69 12 306 -57z m5597 31
c41 -29 66 -83 67 -146 1 -70 -20 -103 -84 -136 -48 -25 10 -25 -700 -8 -157
3 -354 3 -438 -2 l-152 -8 0 33 c0 44 -14 70 -58 109 l-36 31 40 11 c52 13
394 55 669 81 575 55 658 59 692 35z m-7057 -30 c356 -30 644 -58 856 -85 198
-25 210 -30 155 -62 -39 -21 -64 -61 -66 -105 l-2 -35 -129 3 c-178 5 -488 5
-874 -1 -313 -5 -326 -4 -360 15 -48 28 -83 97 -75 149 8 52 40 108 73 129 36
22 65 21 422 -8z m8268 -211 c-146 -204 -383 -430 -541 -515 l-58 -31 -257 36
c-141 20 -287 41 -324 46 -37 6 -70 10 -74 10 -5 0 6 15 23 33 67 71 71 183
10 271 l-21 29 105 -6 c157 -10 494 -39 498 -43 2 -1 -6 -15 -17 -29 -12 -15
-18 -33 -15 -41 15 -41 132 1 455 165 128 65 237 119 241 120 5 0 -7 -20 -25
-45z m-9535 -190 c127 -57 241 -96 261 -88 21 8 20 43 -1 66 -9 10 -14 20 -12
22 4 4 555 46 596 46 l22 0 -27 -52 c-21 -41 -27 -65 -26 -113 1 -64 12 -94
51 -137 l25 -27 -33 -5 c-19 -3 -122 -17 -229 -31 -107 -14 -248 -33 -312 -42
l-117 -16 -68 38 c-100 55 -204 136 -327 254 -95 93 -256 278 -256 294 0 3 80
-33 177 -80 98 -47 222 -105 276 -129z m8117 81 c105 -7 105 -7 142 -46 43
-46 61 -108 46 -172 -10 -47 -30 -72 -73 -94 -35 -19 -79 -16 -465 27 -206 23
-738 70 -792 70 -5 0 -2 10 6 22 29 41 18 106 -26 154 -19 21 -19 21 12 34 62
25 819 29 1150 5z m-5847 -25 c27 -13 27 -14 8 -34 -43 -48 -54 -113 -26 -153
14 -21 14 -21 -43 -27 -31 -3 -102 -8 -157 -11 -139 -8 -506 -41 -715 -65
-295 -32 -369 -35 -409 -12 -92 51 -93 198 -2 275 25 20 44 27 79 28 26 1 108
5 182 9 74 4 342 7 595 6 362 -2 466 -5 488 -16z m6713 -49 c-3 -5 -15 -11
-26 -14 -17 -4 -19 -3 -9 9 12 15 44 20 35 5z m-8797 -25 c10 -12 8 -13 -9 -9
-25 7 -37 23 -17 23 8 0 20 -6 26 -14z m6881 -166 c225 -15 562 -46 820 -76
242 -28 251 -31 289 -109 33 -64 34 -152 3 -212 -41 -78 -109 -102 -206 -73
-106 32 -592 157 -801 205 -110 26 -205 48 -212 50 -9 3 -10 12 -1 35 14 41
-11 109 -58 156 -27 26 -31 34 -17 34 10 0 92 -5 183 -10z m-4737 -53 c-50
-54 -69 -106 -54 -148 8 -22 7 -31 -2 -34 -7 -2 -97 -22 -202 -45 -104 -23
-357 -84 -562 -135 -393 -99 -407 -101 -468 -61 -93 61 -89 277 6 335 52 32
724 99 1288 129 l34 2 -40 -43z m6077 -87 c174 -23 351 -48 393 -56 l28 -6
-33 -16 c-40 -20 -44 -51 -8 -69 52 -26 498 -10 613 22 29 8 -38 -50 -152
-133 -102 -74 -300 -174 -391 -198 -88 -23 -408 -35 -419 -16 -4 8 -73 32
-152 54 -79 22 -146 42 -148 44 -2 2 11 15 28 30 56 47 76 98 76 194 0 74 -3
91 -27 133 l-27 48 32 -6 c18 -3 102 -14 187 -25z m-7447 -36 c-57 -101 -39
-249 38 -319 23 -20 39 -38 37 -40 -1 -2 -70 -21 -152 -43 -82 -23 -152 -46
-157 -53 -9 -15 -283 -14 -374 2 -122 20 -286 89 -425 176 -69 44 -220 156
-220 164 0 3 31 0 68 -7 167 -31 519 -39 590 -13 34 13 25 50 -16 70 l-32 17
32 6 c18 3 155 21 303 40 240 31 302 40 327 45 4 0 -5 -20 -19 -45z m6075 -99
c158 -36 740 -182 841 -211 87 -26 151 -106 151 -192 0 -61 -48 -120 -101
-124 -13 -1 -98 28 -189 64 -192 77 -540 207 -720 270 l-125 43 3 42 c4 43
-14 89 -43 113 -16 13 -16 15 2 21 10 4 20 8 21 8 2 1 74 -15 160 -34z m-4651
-14 c-32 -36 -49 -84 -43 -120 l6 -37 -103 -33 c-177 -58 -624 -217 -841 -299
-143 -55 -167 -55 -216 -7 -21 22 -25 34 -25 88 0 80 34 137 98 167 46 22 522
142 847 213 252 56 240 54 268 49 20 -4 21 -6 9 -21z m4563 -200 c289 -98 720
-263 755 -288 33 -24 75 -108 75 -150 0 -47 -22 -96 -56 -122 -49 -39 -92 -27
-365 101 -136 64 -320 148 -410 188 -90 40 -166 74 -168 76 -2 2 8 17 23 34
32 39 34 96 6 158 l-19 42 22 0 c13 0 74 -18 137 -39z m-4506 -13 c-40 -77
-36 -151 8 -182 12 -9 20 -17 17 -19 -2 -2 -103 -46 -224 -97 -121 -52 -319
-138 -440 -192 -239 -107 -279 -116 -329 -77 -57 45 -71 120 -37 194 35 78 62
90 534 257 271 96 430 146 460 147 l28 1 -17 -32z m5771 -79 l160 -44 -60 -7
c-77 -10 -85 -13 -85 -38 0 -13 12 -25 38 -36 69 -29 455 -155 647 -210 104
-30 191 -57 193 -59 6 -6 -122 -45 -213 -64 -165 -36 -347 -53 -498 -49 -123
4 -153 8 -219 32 -43 15 -82 24 -88 21 -17 -10 -11 -33 13 -55 53 -51 316
-193 472 -256 l79 -32 -89 -7 c-48 -4 -177 -5 -284 -2 -271 8 -388 34 -523
117 -91 56 -121 26 -45 -47 95 -92 314 -254 447 -331 l75 -44 -175 5 c-261 8
-403 37 -553 113 -95 48 -109 51 -126 30 -10 -11 -9 -22 5 -48 24 -47 171
-188 264 -254 44 -31 80 -57 80 -59 0 -1 -51 8 -112 21 -244 51 -434 122 -534
198 -105 80 -167 22 -107 -99 12 -25 13 -27 1 -15 -8 8 -45 48 -84 88 l-69 74
38 -7 c80 -15 127 36 107 120 -5 22 -8 40 -7 42 2 1 45 -36 97 -82 96 -85 113
-95 126 -73 4 7 -17 33 -56 68 l-64 57 48 5 c68 8 107 48 114 116 2 28 0 64
-6 81 l-11 30 47 -22 c26 -11 105 -59 175 -104 71 -46 133 -84 140 -86 6 -1
12 6 15 15 2 12 -24 35 -92 80 -53 35 -95 65 -95 68 0 3 14 14 32 25 61 38 86
141 53 219 l-14 34 55 -29 c30 -16 61 -29 68 -29 7 0 69 -27 139 -60 134 -63
156 -70 156 -45 0 9 -35 32 -85 57 -47 23 -85 45 -85 48 0 3 13 13 29 22 48
27 73 88 69 167 -2 36 -8 74 -12 83 -8 17 -5 17 34 3 23 -8 49 -15 56 -15 8 0
102 -36 209 -81 107 -44 199 -78 205 -74 28 17 -3 37 -156 100 -157 65 -165
69 -146 84 62 49 81 162 42 250 -13 28 -16 42 -7 39 6 -3 84 -25 172 -49z
m-7076 -11 c-16 -30 -22 -61 -23 -104 0 -66 16 -102 61 -140 l24 -21 -172 -69
c-95 -38 -175 -75 -177 -81 -10 -32 42 -19 231 56 112 45 211 81 219 81 9 0
35 7 58 15 39 14 42 14 35 -3 -34 -81 -22 -173 28 -225 18 -17 40 -36 50 -42
14 -8 2 -17 -70 -49 -105 -47 -110 -51 -94 -70 10 -12 32 -5 153 50 77 35 146
64 153 64 7 0 38 13 69 29 44 22 56 25 51 12 -42 -102 -17 -211 55 -243 17 -7
30 -15 30 -18 0 -3 -43 -32 -96 -65 -97 -60 -115 -78 -96 -97 7 -7 43 12 113
58 57 37 141 87 187 110 l83 42 -8 -36 c-24 -116 29 -192 132 -192 l37 0 -66
-57 c-36 -31 -66 -62 -66 -69 0 -32 35 -14 130 67 57 48 105 87 107 86 1 -2
-3 -22 -9 -46 -9 -35 -8 -49 5 -77 18 -38 49 -50 104 -41 l35 6 -63 -67 c-34
-37 -70 -75 -80 -86 -15 -16 -15 -13 2 37 14 42 16 63 9 81 -14 39 -64 35
-127 -8 -105 -72 -224 -119 -428 -170 -97 -24 -259 -57 -253 -51 2 2 35 24 73
50 118 80 250 199 286 259 20 33 11 66 -18 66 -8 0 -57 -20 -107 -44 -155 -76
-298 -104 -571 -112 l-190 -5 70 38 c192 105 525 354 525 392 0 28 -37 21
-133 -28 -144 -72 -242 -91 -513 -98 -116 -3 -251 -2 -300 2 l-89 7 79 29
c155 56 468 221 511 269 17 18 17 22 4 36 -13 13 -24 11 -95 -12 -165 -56
-533 -40 -834 35 -41 10 -91 25 -110 34 l-35 14 45 12 c174 45 507 144 675
200 174 58 200 69 203 88 4 24 -6 29 -93 41 l-50 7 170 47 c94 25 173 47 178
47 4 1 -2 -18 -14 -41z m5781 -201 c233 -103 429 -195 459 -216 34 -25 81
-113 81 -153 0 -52 -26 -97 -65 -114 -21 -8 -46 -12 -58 -8 -12 4 -94 53 -182
109 -88 56 -226 141 -307 189 l-148 88 25 30 c30 35 31 68 6 125 l-19 42 41
-19 c23 -9 98 -42 167 -73z m-4400 28 c-27 -52 -25 -87 5 -124 l26 -30 -43
-24 c-24 -14 -77 -44 -118 -67 -41 -24 -169 -99 -285 -169 -176 -105 -216
-125 -249 -124 -84 2 -122 102 -76 198 35 72 60 86 605 318 83 36 151 64 152
63 2 -1 -6 -20 -17 -41z m4360 -291 c236 -140 302 -210 304 -316 1 -63 -25
-91 -84 -90 -64 1 -134 41 -277 160 -72 60 -158 131 -193 158 l-63 49 38 6
c21 4 45 15 52 25 15 20 14 93 -2 128 -8 19 -8 19 26 -1 19 -11 108 -64 199
-119z m-4285 86 c-8 -16 -15 -42 -15 -58 0 -34 34 -82 58 -82 47 -1 40 -18
-25 -66 -38 -27 -125 -95 -194 -150 -146 -117 -217 -155 -285 -157 -39 0 -51
4 -71 27 -64 75 10 209 171 305 81 49 368 211 374 211 1 0 -4 -13 -13 -30z
m4060 -249 c175 -136 282 -271 273 -347 -2 -25 -8 -29 -36 -32 -62 -6 -142 44
-307 192 l-81 72 33 30 c27 25 33 39 33 72 0 22 -5 53 -10 68 -9 21 -8 25 2
17 7 -5 49 -38 93 -72z m-1261 42 c24 -112 172 -1077 221 -1438 48 -360 49
-418 5 -469 -76 -86 -196 -111 -764 -161 -209 -19 -400 -49 -471 -76 -70 -26
-119 -70 -152 -137 -27 -55 -28 -64 -33 -252 -6 -211 -12 -237 -65 -279 -47
-36 -94 -46 -225 -46 -145 0 -276 24 -461 85 -496 163 -730 444 -769 927 -5
69 -7 176 -3 239 6 105 8 113 27 116 29 4 34 38 6 45 -20 5 -21 10 -15 62 4
31 11 64 16 73 5 9 9 25 9 36 0 46 83 186 149 252 131 130 272 182 661 245
106 18 159 43 210 102 82 93 115 240 107 473 -3 85 -7 164 -9 175 -3 19 5 20
222 27 556 19 804 25 1057 26 l271 2 6 -27z m-2694 -9 c-23 -59 -7 -129 35
-155 24 -14 23 -14 -63 -86 -192 -160 -253 -197 -319 -191 -33 3 -38 7 -41 30
-9 77 77 186 254 323 75 58 138 105 140 105 2 0 -1 -12 -6 -26z m225 -154
c-82 -109 -102 -120 -70 -42 13 31 144 166 153 157 2 -1 -36 -53 -83 -115z
m3710 -170 c77 -73 145 -144 152 -158 17 -39 16 -92 -4 -114 -23 -25 -95 -24
-152 4 -42 20 -271 240 -271 261 0 4 8 7 18 6 61 -10 99 38 89 111 -7 53 -4
51 168 -110z m-3839 63 c-1 -65 -4 -72 -52 -143 -28 -41 -70 -108 -94 -148
-39 -67 -45 -73 -84 -79 -22 -3 -42 -6 -44 -6 -50 9 -60 15 -72 42 -20 49 2
95 84 172 54 51 257 229 262 229 0 0 0 -30 0 -67z m3682 -265 c61 -65 118
-131 127 -147 37 -72 8 -173 -59 -205 -49 -23 -52 -21 -65 32 -16 60 -88 212
-133 279 -35 51 -35 51 -16 70 11 11 20 36 21 56 1 20 5 36 8 34 3 -1 56 -55
117 -119z m474 -130 c51 -69 65 -79 74 -55 3 9 30 -11 77 -57 46 -45 102 -87
155 -116 91 -49 88 -60 -9 -35 -94 25 -172 60 -279 125 -52 32 -107 62 -123
65 -37 10 -60 -10 -52 -44 4 -21 -7 -13 -60 41 -36 37 -65 69 -65 71 0 2 11 2
25 -1 67 -12 137 29 150 90 l7 30 25 -24 c14 -13 48 -53 75 -90z m-4546 55
c12 -49 61 -83 120 -83 24 0 44 -4 44 -8 0 -4 -28 -34 -61 -67 -43 -42 -60
-54 -57 -39 7 29 -9 54 -35 54 -12 0 -53 -18 -92 -40 -126 -72 -249 -128 -325
-149 -124 -35 -137 -26 -37 26 55 29 114 70 160 113 61 57 75 66 90 56 15 -9
21 -7 33 9 31 43 138 165 144 165 3 0 11 -17 16 -37z m4443 -279 c11 12 24 6
93 -47 97 -74 105 -88 46 -76 -56 10 -66 14 -178 65 -52 23 -107 46 -121 49
-34 8 -60 -16 -51 -47 9 -37 112 -132 175 -162 54 -27 57 -30 42 -47 -41 -45
-190 -49 -285 -8 -49 21 -50 22 -50 66 l0 45 38 -23 c20 -13 48 -29 60 -38 20
-12 25 -12 33 0 14 23 12 25 -65 73 -83 52 -101 81 -58 97 91 33 142 99 142
184 0 14 21 -2 83 -63 71 -71 85 -81 96 -68z m-4361 -8 c-21 -57 -24 -60 -85
-88 -62 -28 -183 -61 -191 -53 -8 8 21 37 78 75 31 21 62 45 69 54 13 15 15
15 33 -1 18 -16 21 -15 65 30 26 25 48 45 50 44 1 -2 -7 -29 -19 -61z m-75
-266 c-6 -24 -16 -25 -32 -6 -9 11 -9 15 1 19 27 11 36 7 31 -13z m4161 -148
c22 -20 57 -49 76 -64 19 -15 31 -31 26 -35 -4 -4 -40 -8 -79 -8 l-72 0 -3 73
c-2 39 0 72 4 72 4 0 25 -17 48 -38z"/>
<path d="M4607 3264 c-3 -22 -7 -127 -7 -234 -1 -107 -2 -217 -2 -245 l-1 -50
569 3 569 2 0 123 c-1 67 -2 191 -4 275 l-4 152 -521 0 c-287 0 -537 3 -557 6
-36 6 -36 6 -42 -32z"/>
<path d="M4715 2581 c-63 -8 -75 -16 -75 -49 0 -46 34 -90 82 -104 61 -18 876
-15 934 4 44 15 54 40 33 89 -17 42 -36 49 -162 59 -123 11 -732 11 -812 1z"/>
<path d="M3581 2328 c-78 -53 -100 -130 -59 -207 75 -139 281 -85 281 74 0 81
-58 145 -140 152 -39 4 -55 0 -82 -19z"/>
<path d="M4841 2080 l-244 -6 -24 -29 c-21 -23 -24 -36 -20 -68 8 -61 54 -118
107 -135 111 -35 1076 -17 1134 22 32 20 34 68 7 136 -25 62 -50 68 -300 80
-219 10 -278 10 -660 0z"/>
<path d="M4160 1978 c-136 -70 -103 -265 50 -293 87 -15 178 80 166 174 -15
111 -120 169 -216 119z"/>
<path d="M3642 1593 c-38 -8 -99 -74 -107 -116 -17 -91 38 -177 123 -192 57
-9 126 24 154 75 25 45 21 134 -7 172 -36 48 -104 73 -163 61z"/>
<path d="M4132 1230 c-101 -62 -97 -216 8 -271 130 -69 271 80 201 211 -40 76
-137 104 -209 60z"/>
<path d="M4243 11875 c-17 -7 -37 -23 -43 -35 -25 -47 18 -192 61 -205 16 -6
46 5 113 40 67 35 106 49 148 53 56 5 58 6 58 33 0 28 -2 29 -49 29 -42 0 -54
5 -93 40 -70 61 -127 75 -195 45z"/>
</g>
</svg>
